<svg width="24" height="24" viewBox="0 0 24 24" fill="none" xmlns="http://www.w3.org/2000/svg">
<path d="M8.91614 8.89526H15.0822" stroke="#32384A" stroke-width="0.8" stroke-linecap="round" stroke-linejoin="round"/>
<path d="M8.91614 11.9783H15.0822" stroke="#32384A" stroke-width="0.8" stroke-linecap="round" stroke-linejoin="round"/>
<path d="M14.0868 17.7478L12.66 20.1258C12.5915 20.2399 12.4946 20.3344 12.3788 20.4C12.263 20.4655 12.1322 20.5 11.9991 20.5C11.866 20.5 11.7351 20.4655 11.6193 20.4C11.5035 20.3344 11.4066 20.2399 11.3381 20.1258L9.91132 17.7478C9.84284 17.6336 9.74598 17.5392 9.63015 17.4736C9.51433 17.408 9.3835 17.3736 9.2504 17.3736H3.52076C3.31634 17.3736 3.12029 17.2923 2.97575 17.1478C2.8312 17.0033 2.75 16.8072 2.75 16.6028V4.27076C2.75 4.06634 2.8312 3.87029 2.97575 3.72575C3.12029 3.5812 3.31634 3.5 3.52076 3.5H20.4774C20.6818 3.5 20.8778 3.5812 21.0224 3.72575C21.1669 3.87029 21.2481 4.06634 21.2481 4.27076V16.6028C21.2481 16.8073 21.1669 17.0033 21.0224 17.1478C20.8778 17.2924 20.6818 17.3736 20.4774 17.3736L14.7477 17.3736C14.6146 17.3736 14.4838 17.408 14.368 17.4736C14.2522 17.5392 14.1553 17.6336 14.0868 17.7478V17.7478Z" stroke="#32384A" stroke-width="0.8" stroke-linecap="round" stroke-linejoin="round"/>
</svg>
